<?xml version="1.0" encoding="UTF-8"?>
<svg xmlns="http://www.w3.org/2000/svg" xmlns:xlink="http://www.w3.org/1999/xlink" width="50px" height="50px" viewBox="0 0 50 50" version="1.1">
<g id="surface1">
<path style=" stroke:none;fill-rule:nonzero;fill:rgb(0%,0%,0%);fill-opacity:1;" d="M 23.363281 0.015625 C 23.257812 0.0195312 22.910156 0.0585938 22.605469 0.0820312 C 15.5 0.722656 8.847656 4.550781 4.636719 10.441406 C 2.292969 13.71875 0.792969 17.433594 0.222656 21.359375 C 0.0234375 22.738281 0 23.144531 0 25.007812 C 0 26.863281 0.0234375 27.273438 0.222656 28.648438 C 1.582031 38.03125 8.261719 45.917969 17.324219 48.847656 C 18.953125 49.363281 20.65625 49.71875 22.605469 49.941406 C 23.363281 50.019531 26.636719 50.019531 27.394531 49.941406 C 30.753906 49.5625 33.597656 48.734375 36.402344 47.300781 C 36.828125 47.085938 36.917969 47.023438 36.855469 46.972656 C 36.816406 46.945312 34.980469 44.484375 32.785156 41.515625 L 28.785156 36.113281 L 23.777344 28.703125 C 21.023438 24.628906 18.753906 21.296875 18.730469 21.296875 C 18.71875 21.292969 18.691406 24.585938 18.6875 28.609375 C 18.667969 35.644531 18.664062 35.929688 18.574219 36.097656 C 18.453125 36.339844 18.351562 36.433594 18.144531 36.542969 C 17.988281 36.621094 17.855469 36.632812 17.121094 36.632812 L 16.269531 36.632812 L 16.042969 36.496094 C 15.898438 36.398438 15.792969 36.277344 15.722656 36.140625 L 15.613281 35.917969 L 15.625 26.117188 L 15.644531 16.3125 L 15.792969 16.121094 C 15.871094 16.027344 16.035156 15.886719 16.152344 15.832031 C 16.351562 15.730469 16.429688 15.722656 17.28125 15.722656 C 18.273438 15.722656 18.441406 15.761719 18.699219 16.042969 C 18.769531 16.121094 21.488281 20.207031 24.734375 25.128906 C 27.980469 30.050781 32.410156 36.769531 34.589844 40.0625 L 38.550781 46.066406 L 38.753906 45.925781 C 40.527344 44.78125 42.402344 43.136719 43.886719 41.425781 C 47.050781 37.792969 49.089844 33.371094 49.777344 28.648438 C 49.976562 27.273438 50 26.863281 50 25.007812 C 50 23.144531 49.976562 22.738281 49.777344 21.359375 C 48.417969 11.972656 41.738281 4.089844 32.675781 1.164062 C 31.074219 0.644531 29.375 0.292969 27.472656 0.0742188 C 27 0.0273438 23.769531 -0.0234375 23.363281 0.015625 Z M 33.597656 15.136719 C 33.832031 15.253906 34.023438 15.476562 34.089844 15.714844 C 34.128906 15.839844 34.140625 18.554688 34.128906 24.675781 L 34.117188 33.464844 L 32.5625 31.089844 L 31.011719 28.71875 L 31.011719 22.324219 C 31.011719 18.195312 31.035156 15.878906 31.0625 15.761719 C 31.140625 15.488281 31.308594 15.277344 31.542969 15.144531 C 31.742188 15.046875 31.816406 15.03125 32.589844 15.03125 C 33.308594 15.03125 33.433594 15.046875 33.597656 15.136719 Z M 33.597656 15.136719 "/>
</g>
</svg>
