<?xml version="1.0" encoding="UTF-8"?>
<svg xmlns="http://www.w3.org/2000/svg" xmlns:xlink="http://www.w3.org/1999/xlink" width="38px" height="38px" viewBox="0 0 38 38" version="1.1">
<g id="surface1">
<path style=" stroke:none;fill-rule:evenodd;fill:rgb(43.921569%,67.843137%,31.764706%);fill-opacity:1;" d="M 6.492188 33.242188 C -2.6875 33.265625 -10.148438 25.84375 -10.175781 16.664062 C -10.199219 7.488281 -2.777344 0.0234375 6.402344 0 L 6.085938 -0.277344 C 2.339844 29.40625 0 24.457031 0 18.972656 C 0 8.511719 8.511719 0 18.976562 0 C 24.296875 0 29.105469 2.207031 32.554688 5.742188 C 36.546875 13.910156 33.597656 23.773438 25.773438 28.402344 C 17.953125 33.035156 7.886719 30.878906 2.648438 23.449219 C -2.59375 16.019531 -1.246094 5.8125 5.742188 0 C 8.160156 7.265625 9.582031 13.371094 9.0625 18.179688 C 8.359375 28.007812 0.144531 35.792969 -9.855469 35.792969 C -17.253906 39.140625 -25.964844 37.386719 -31.488281 31.433594 C -37.015625 25.480469 -38.113281 16.660156 -34.21875 9.535156 C -30.324219 2.40625 -22.3125 -1.433594 -14.316406 0 L -14.597656 -0.25 Z M 34.492188 27.324219 C 39.253906 20.988281 36.601562 10.742188 34.390625 4.191406 C 32.421875 8.292969 27.578125 11.429688 23.390625 12.421875 C 19.46875 13.359375 16 12.589844 12.367188 13.988281 C 4.09375 17.171875 4.222656 27.039062 8.78125 29.257812 C 8.785156 29.257812 9.054688 29.40625 9.050781 29.402344 C 9.050781 29.398438 15.753906 28.070312 19.460938 26.699219 C 24.875 24.703125 30.820312 19.773438 32.773438 14.046875 C 31.734375 20 26.621094 25.730469 21.484375 28.363281 C 18.75 29.765625 16.625 30.078125 12.128906 31.636719 C 11.578125 31.824219 11.144531 32.007812 11.144531 32.007812 C 12.285156 31.816406 13.421875 31.757812 13.421875 31.757812 C 19.824219 31.453125 29.816406 33.554688 34.492188 27.328125 Z M 34.492188 27.324219 "/>
</g>
</svg>
